<svg width="32" height="32" viewBox="0 0 32 32" fill="none" xmlns="http://www.w3.org/2000/svg">
<path d="M31.6635 0H0.212891V32H31.6635V0Z" fill="white"/>
<g clip-path="url(#clip0_4203_437)">
<path d="M22.4179 12.7411C22.428 12.8833 22.428 13.0254 22.428 13.1675C22.428 17.5025 19.1507 22.4975 13.1608 22.4975C11.3155 22.4975 9.6012 21.9594 8.15918 21.0254C8.42137 21.0558 8.67345 21.066 8.94573 21.066C10.4684 21.066 11.8701 20.5483 12.9894 19.665C11.5575 19.6345 10.3575 18.6904 9.94403 17.3909C10.1457 17.4213 10.3474 17.4416 10.5592 17.4416C10.8516 17.4416 11.1441 17.401 11.4163 17.33C9.92388 17.0254 8.80453 15.7056 8.80453 14.1117V14.0711C9.23812 14.3148 9.74236 14.467 10.2768 14.4873C9.39947 13.8985 8.8247 12.8934 8.8247 11.7563C8.8247 11.1472 8.98602 10.5888 9.26839 10.1015C10.8717 12.0914 13.2818 13.3908 15.9843 13.533C15.9339 13.2893 15.9036 13.0356 15.9036 12.7818C15.9036 10.9746 17.3557 9.50256 19.1608 9.50256C20.0986 9.50256 20.9456 9.8985 21.5406 10.5381C22.2767 10.396 22.9826 10.1218 23.6078 9.74622C23.3658 10.5077 22.8515 11.1473 22.1759 11.5533C22.8313 11.4823 23.4666 11.2995 24.0515 11.0457C23.6079 11.6954 23.0532 12.2741 22.4179 12.7411Z" fill="black"/>
</g>
<defs>
<clipPath id="clip0_4203_437">
<rect width="15.8924" height="16" fill="white" transform="translate(8.15918 8)"/>
</clipPath>
</defs>
</svg>
